<svg width="112" height="128" viewBox="0 0 112 128" fill="none" xmlns="http://www.w3.org/2000/svg">
    <ellipse cx="57.9118" cy="123.055" rx="43.8454" ry="4.7549" fill="#007F6E" fill-opacity="0.1" />
    <path
        d="M24.941 44.0137C25.0034 44.1768 25.0612 44.336 25.1134 44.4935C25.2083 44.7795 25.0237 44.8096 24.949 44.5176C24.8936 44.3012 24.634 44.2662 24.5381 44.468C24.1974 45.1843 23.7407 46.2393 23.2482 46.1566C22.1623 45.9743 21.5597 45.9259 20.4672 46.3601C19.0406 46.9271 18.3326 47.7174 17.5202 49.0776C16.8887 50.135 16.955 51.5722 16.6469 52.7271C16.3964 53.6662 16.0051 54.6335 15.6662 55.5431C15.0237 57.2675 14.3696 58.8734 13.342 60.4201C12.2681 62.0365 11.1135 63.5021 9.70118 64.8442C8.31864 66.158 8.00783 68.1605 7.59193 69.9378C7.0281 72.3474 6.86832 74.8343 6.6515 77.2895C6.46849 79.3618 6.82114 81.6917 8.35771 83.2627C9.40422 84.3326 11.1631 84.6344 12.5896 84.8249C13.724 84.9764 14.9311 85.8395 16.0021 86.3016C16.8356 86.6613 17.4533 87.1394 18.427 87.0893C19.2951 87.0447 18.8326 85.1655 19.594 84.7757C20.6642 84.228 22.1154 82.9419 23.4497 83.3185C24.3514 83.5731 23.9728 84.9768 24.0879 85.6356C24.3052 86.8795 24.7885 88.0548 24.9343 89.318C25.0924 90.6885 24.2707 90.297 24.0409 91.5499C23.8352 92.6709 24.0517 93.955 24.014 95.0944C23.9463 97.1366 24.0707 99.346 24.4842 101.343C24.7625 102.688 24.5278 104.234 25.8948 105.013C26.9528 105.615 26.3585 105.112 27.3861 105.807C28.0441 106.251 28.1803 106.552 28.9848 106.824C30.9526 107.489 33.1003 106.844 35.1178 107.29C37.0729 107.723 38.4572 108.616 40.5454 108.196C41.9677 107.91 43.2216 107.406 44.69 107.277C45.4434 107.211 47.8541 107.14 48.5592 107.12C51.1127 107.045 53.6266 107.061 56.1767 107.198C58.9502 107.348 61.635 107.004 64.3987 106.988C66.4753 106.977 67.1646 107.106 69.1949 107.513C70.8059 107.837 71.8862 108.267 73.5478 108.209C75.5139 108.141 77.5612 107.351 79.3785 106.68C80.6696 106.203 81.3695 105.983 82.408 105.065C83.1684 104.393 83.744 103.558 84.1772 102.65C85.0472 100.828 86.0857 98.7627 86.3273 96.7576C86.6241 94.2943 86.2808 91.1189 86.1102 90.607C85.8461 89.8145 87.695 89.022 89.0156 88.4937C90.3363 87.9654 89.5439 86.6446 89.0156 83.7388C88.4874 80.833 90.6004 83.4746 91.6569 82.6821C93.0994 81.6002 94.9727 84.2352 96.7386 83.8705C97.9649 83.6173 99.1832 83.2337 99.8449 82.6821C100.354 82.2577 102.25 81.1335 102.458 80.5043C102.653 79.9182 102.85 79.2962 103.014 78.7197C103.543 76.8706 104.071 77.3989 104.599 75.0215C105.128 72.644 103.543 70.7949 104.071 70.0024C104.599 69.2099 105.128 70.0024 103.543 65.7758C101.958 61.5493 101.694 63.9267 101.694 63.1342C101.694 62.3417 99.8449 61.2851 99.0525 60.2285L98.6206 59.6525C98.3807 59.3326 98.167 58.9933 98.0106 58.6253C97.7262 57.9566 97.3616 56.9497 97.2036 56.0019C97.0633 55.16 96.5271 53.7281 96.028 52.5257C95.6043 51.505 94.8899 50.6384 93.9622 50.0378C93.3696 49.6542 92.6011 49.172 91.6569 48.6054C89.0156 47.0204 89.0156 49.1337 87.695 48.6054C86.3744 48.077 86.3744 47.5487 85.5181 45.9638C85.0027 45.0097 84.7109 43.8766 84.5727 43.1041C84.4985 42.6896 84.4189 42.2756 84.3229 41.8657C84.1088 40.9524 83.9973 39.9757 84.094 39.0514C84.1835 38.197 84.6133 37.3148 84.8195 36.4783C85.0843 35.4041 85.4968 34.1036 85.1822 33.006C84.921 32.0943 84.1303 31.4443 83.9664 30.492C83.726 29.0948 84.5539 27.8123 85.1688 26.6258C85.7024 25.5961 86.2759 24.565 85.5181 23.5014C84.775 22.4583 84.3423 22.1007 84.9807 20.8167C85.4663 19.8401 86.1848 18.896 86.257 17.771C86.3288 16.6533 85.6598 15.9288 85.2629 14.9616C84.9136 14.1108 85.1006 13.1983 84.8867 12.3229C84.5771 11.056 83.7952 10.7538 82.8043 10.0846C82.1297 9.62898 82.3793 9.13836 82.5087 8.48302C82.6259 7.88998 82.3601 7.38904 81.7631 7.16366C81.2203 6.95872 80.6031 6.99054 80.0435 6.91423C78.7141 6.73298 78.6245 6.65883 77.2759 6.28409C76.1454 5.96997 75.2411 5.64748 74.0852 5.98215C72.9648 6.30654 73.882 6.17509 72.7686 6.40224C72.2083 6.51655 71.6504 6.46498 71.0892 6.53352C70.2791 6.63247 69.3654 7.48726 68.6307 6.95362C68.0719 6.5478 67.4954 6.48268 66.8036 6.36942C65.7976 6.20474 64.3115 6.00058 63.3307 5.91651C61.9637 5.79934 61.1622 5.74494 59.8309 5.94277C58.4063 6.15446 58.6849 6.30275 57.3186 6.54009C55.576 6.84282 53.83 6.5671 52.0791 6.91423C50.599 7.20768 49.1132 7.79683 47.5986 7.33433C46.3627 6.95691 45.5745 6.31409 44.2064 6.41537C43.3245 6.48066 42.4986 6.49862 41.6135 6.46788C39.7293 6.40246 37.8559 6.39126 35.9843 6.12656C33.9162 5.83406 33.1252 7.66589 31.4165 8.41082C30.4903 8.8146 29.7262 8.36434 28.8035 8.41738C27.9751 8.465 27.3024 10.0101 27.0099 10.6426C26.4938 11.7584 26.1323 12.6052 26.0829 13.8589C26.0312 15.1741 26.2714 16.1327 25.5724 17.2984C24.7688 18.6385 24.6437 19.6023 25.3306 20.9611C25.6895 21.6711 25.1338 22.5042 25.0417 23.2388C24.9093 24.2955 24.7085 25.2799 25.0014 26.337C25.259 27.2663 25.7339 27.7079 25.4515 28.7197C25.1577 29.7724 24.9817 30.4038 25.3843 31.4109C25.7 32.2007 25.2976 32.7778 25.0619 33.518C24.8427 34.2065 24.9571 34.9741 25.2298 35.6315C25.7233 36.8209 25.6351 37.3 25.0753 38.4606C24.5839 39.4795 25.1694 40.1717 25.1694 41.1912C25.1694 41.9003 24.9984 42.302 24.7663 42.9635C24.6312 43.3487 24.8023 43.6516 24.941 44.0137Z"
        fill="#B0F7C2" stroke="#78E5A9" strokeWidth="1.51486" strokeLinecap="round"
        strokeLinejoin="round" />
    <path
        d="M52.5004 90.9536H44.0483V111.558C44.0483 114.055 42.6548 114.578 38.4565 116.152L38.3654 116.187C36.2524 116.979 32.5807 117.772 31.2339 117.772C29.121 117.772 28.3285 120.677 30.4415 120.677H44.9686C47.874 120.677 48.1382 120.413 50.5153 120.413C54.2131 120.413 52.5004 116.979 52.5004 115.13V112.086V90.9536Z"
        fill="white" stroke="#202023" strokeWidth="1.21189" />
    <path
        d="M43.5198 90.9536H53.0284V109.973C50.3871 107.596 46.4252 107.596 43.5198 109.973V90.9536Z"
        fill="#202023" />
    <path
        d="M28.844 117.634C27.7329 118.289 28.0027 119.729 28.4788 120.486H32.9867C33.0882 119.881 32.4152 117.857 32.0661 116.92C31.3624 116.94 29.7328 117.11 28.844 117.634Z"
        fill="#A9F7ED" stroke="#202023" strokeWidth="1.21189" strokeLinejoin="round" />
    <path
        d="M35.3315 120.456C35.3316 119.954 34.6808 117.057 34.2681 116.326C34.7446 116.045 35.7788 115.9 36.4108 115.91C36.7124 116.426 37.6013 119.338 37.6171 120.456C37.4743 120.456 36.3315 120.499 35.3315 120.456Z"
        fill="#D6B6FF" stroke="#202023" strokeWidth="1.21189" strokeLinejoin="round" />
    <path
        d="M39.4861 120.451C39.4861 119.807 38.8353 116.085 38.4226 115.145C38.8485 114.88 39.878 114.695 40.5654 114.611C40.867 115.274 41.7558 119.014 41.7717 120.451C41.6288 120.451 40.486 120.507 39.4861 120.451Z"
        fill="#FB6D72" stroke="#202023" strokeWidth="1.21189" strokeLinejoin="round" />
    <path
        d="M52.8852 112.921C50.3708 113.19 45.8492 113.344 43.6516 111.809C43.3392 112.093 42.6052 112.852 42.1692 113.619C43.4336 113.75 46.1423 115.071 46.7423 115.93C47.5489 117.086 47.4981 119.186 47.7234 120.313C48.1667 120.255 49.245 120.295 49.7508 120.313C48.8788 116.301 50.9667 115.058 53.0596 114.927L52.8852 112.921Z"
        fill="#FFEE76" stroke="#202023" strokeWidth="1.21189" strokeLinejoin="round" />
    <path
        d="M52.8404 120.565C52.8404 120.304 52.2753 120.379 51.8743 120.379C43.957 120.379 28.0933 120.416 27.9766 120.565C27.8307 120.751 27.7214 122.288 27.9766 122.511C28.2318 122.734 52.8404 122.635 52.9498 122.511C53.0591 122.387 52.8404 120.825 52.8404 120.565Z"
        fill="#D6B6FF" stroke="#202023" strokeWidth="1.21189" strokeLinejoin="round" />
    <path
        d="M60.6092 90.9536H69.0613V111.558C69.0613 114.055 70.4549 114.578 74.6532 116.152L74.7442 116.187C76.8572 116.979 80.5289 117.772 81.8757 117.772C83.9887 117.772 84.7811 120.677 82.6681 120.677H68.141C65.2356 120.677 64.9715 120.413 62.5943 120.413C58.8965 120.413 60.6092 116.979 60.6092 115.13V112.086V90.9536Z"
        fill="white" stroke="#202023" strokeWidth="1.21189" />
    <path
        d="M69.5898 90.9536H60.0812V109.973C62.7225 107.596 66.6844 107.596 69.5898 109.973V90.9536Z"
        fill="#202023" />
    <path
        d="M84.2656 117.634C85.3766 118.289 84.6307 119.477 84.6307 120.486H80.1229C80.0213 119.881 80.6943 117.857 81.0435 116.92C81.7471 116.94 83.3767 117.11 84.2656 117.634Z"
        fill="#A9F7ED" stroke="#202023" strokeWidth="1.21189" strokeLinejoin="round" />
    <path
        d="M77.7778 120.456C77.7778 119.954 78.4286 117.057 78.8413 116.326C78.3648 116.045 77.3306 115.9 76.6985 115.91C76.397 116.426 75.5081 119.338 75.4922 120.456C75.6351 120.456 76.7779 120.499 77.7778 120.456Z"
        fill="#D6B6FF" stroke="#202023" strokeWidth="1.21189" strokeLinejoin="round" />
    <path
        d="M73.2549 120.451C73.2549 119.807 73.8937 116.366 74.3064 115.426C73.8805 115.161 72.863 114.695 72.1756 114.611C71.874 115.274 70.9852 119.014 70.9693 120.451C71.1122 120.451 72.255 120.507 73.2549 120.451Z"
        fill="#FB6D72" stroke="#202023" strokeWidth="1.21189" strokeLinejoin="round" />
    <path
        d="M60.2174 112.921C62.6371 113.19 66.9884 113.344 69.1032 111.809C69.4039 112.093 70.1102 112.852 70.5298 113.619C69.313 113.75 67.7628 115.071 67.1854 115.93C66.4092 117.086 66.4581 119.186 66.2413 120.313C65.8147 120.255 64.777 120.295 64.2903 120.313C65.1295 116.301 62.0637 115.058 60.0496 114.927L60.2174 112.921Z"
        fill="#FFEE76" stroke="#202023" strokeWidth="1.21189" strokeLinejoin="round" />
    <path
        d="M60.2692 120.565C60.2693 120.304 60.8343 120.379 61.2354 120.379C69.1526 120.379 85.0163 120.416 85.133 120.565C85.2789 120.751 85.3882 122.288 85.133 122.511C84.8778 122.734 60.7975 122.635 60.6881 122.511C60.5787 122.387 60.2692 120.825 60.2692 120.565Z"
        fill="#D6B6FF" stroke="#202023" strokeWidth="1.21189" strokeLinejoin="round" />
    <path
        d="M13.1799 67.7482C12.7514 69.1077 14.1255 70.8071 15.1154 71.2357L25.1336 70.9401C25.8724 70.5855 27.1904 69.4505 26.5521 67.7481C25.7542 65.6201 23.8037 65.9157 22.7694 66.625C21.7351 67.3344 20.0359 67.1718 17.4796 66.359C14.9234 65.5463 13.6083 66.3886 13.1799 67.7482Z"
        fill="#FCED87" stroke="#202023" strokeWidth="1.21189" strokeLinecap="round"
        strokeLinejoin="round" />
    <path d="M34.299 51.0549C26.083 51.1428 16.0656 54.7021 21.0743 73.5529" stroke="#202023"
        strokeWidth="6.66537" strokeLinecap="round" strokeLinejoin="round" />
    <path d="M34.299 51.0549C26.083 51.1428 16.0656 54.7021 21.0743 73.5529" stroke="white"
        strokeWidth="4.2416" strokeLinecap="round" strokeLinejoin="round" />
    <path
        d="M11.8349 78.152C11.5541 75.6841 13.3568 71.4872 13.9183 70.3641L15.9279 69.0193C17.2725 69.4922 20.7004 70.3346 24.3206 68.3691L26.1233 70.1868C29.1671 74.3245 27.7634 76.1422 26.6109 76.9845L26.6043 76.9662C26.9587 78.712 26.3501 79.9549 25.3845 79.9549C23.9955 79.9549 23.6705 79.3046 23.109 79.3046C22.5475 79.3047 22.0894 80.2652 21.3063 80.1322C20.5232 79.9992 20.2868 79.2012 19.6514 79.2012C19.016 79.2012 18.7205 80.0583 17.435 80.0583C16.1495 80.0583 15.9279 78.95 15.2629 78.95C14.598 78.95 14.1843 79.8367 13.2682 79.8367C12.3521 79.8367 11.9341 79.0244 11.8349 78.152Z"
        fill="#FCED87" />
    <path d="M15.927 69.0193C17.2716 69.4922 20.6995 70.3346 24.3197 68.3691" stroke="#202023"
        strokeWidth="1.21189" strokeLinecap="round" strokeLinejoin="round" />
    <path
        d="M25.532 74.4426C27.4233 77.3834 26.7732 79.9547 25.3842 79.9547C23.9953 79.9547 23.6702 79.3045 23.1087 79.3045C22.5473 79.3045 22.0892 80.265 21.3061 80.132C20.523 79.999 20.2865 79.201 19.6512 79.201C19.0158 79.201 18.7203 80.0582 17.4348 80.0582C16.1492 80.0582 15.9276 78.9498 15.2627 78.9498C14.5978 78.9498 14.1841 79.8365 13.2679 79.8365C12.3518 79.8365 11.9339 79.0242 11.8346 78.1518C11.5539 75.6839 13.3566 71.4871 13.918 70.364L13.9529 70.3005M15.1149 71.2358C14.7431 71.0749 14.3172 70.7347 13.9529 70.3005M25.1331 70.9403C25.8719 70.5856 27.1899 69.4507 26.5516 67.7483C26.1412 66.6537 25.4259 66.2004 24.6872 66.1147M13.9529 70.3005C13.3471 69.5787 12.9118 68.5972 13.1794 67.7483C13.4865 66.7736 14.2493 66.0648 15.5984 66.041"
        stroke="#202023" strokeWidth="1.21189" strokeLinecap="round" strokeLinejoin="round" />
    <path d="M26.6104 76.9846C27.7629 76.1422 29.1666 74.3245 26.1228 70.1868" stroke="#202023"
        strokeWidth="1.21189" strokeLinecap="round" strokeLinejoin="round" />
    <path
        d="M99.1567 68.2465C99.488 69.633 97.9973 71.2311 96.9796 71.5886L87.0074 70.5859C86.2955 70.1799 85.0609 68.9547 85.8179 67.3016C86.7642 65.2353 88.6888 65.6679 89.6705 66.4486C90.6521 67.2292 92.3586 67.1872 94.9658 66.557C97.5731 65.9269 98.8253 66.8601 99.1567 68.2465Z"
        fill="#FCED87" stroke="#202023" strokeWidth="1.21189" strokeLinecap="round"
        strokeLinejoin="round" />
    <path d="M78.2065 51.055C85.6307 51.7177 95.435 55.4318 91.4312 73.5529" stroke="#202023"
        strokeWidth="6.66537" strokeLinecap="round" strokeLinejoin="round" />
    <path d="M78.2065 51.055C85.6307 51.7177 95.435 55.4318 91.4312 73.5529" stroke="white"
        strokeWidth="4.2416" strokeLinecap="round" strokeLinejoin="round" />
    <path
        d="M99.7649 78.7194C100.219 76.2775 98.7176 71.9638 98.2368 70.8038L96.3272 69.3204C94.9526 69.6971 91.4737 70.2951 88.0014 68.0787L86.0748 69.7644C82.2976 73.5359 83.6584 75.4762 85.1082 76.5107L85.116 76.4929C84.6392 78.2093 85.1585 79.492 86.1217 79.5602C87.5072 79.6584 87.8774 79.0328 88.4374 79.0725C88.9975 79.1121 89.3866 80.1027 90.1772 80.0253C90.9677 79.948 91.2599 79.1687 91.8937 79.2136C92.5275 79.2585 92.7617 80.1344 94.044 80.2252C95.3264 80.3161 95.6257 79.2262 96.289 79.2732C96.9523 79.3201 97.3023 80.2338 98.2161 80.2986C99.13 80.3633 99.6042 79.5826 99.7649 78.7194Z"
        fill="#FCED87" />
    <path d="M95.8992 69.2891C94.6248 69.6735 91.4014 70.2908 88.1995 68.0923" stroke="#202023"
        strokeWidth="1.21189" strokeLinecap="round" strokeLinejoin="round" />
    <path
        d="M86.365 74.053C84.2704 76.8538 84.7366 79.465 86.1218 79.5629C87.507 79.6608 87.8773 79.035 88.4373 79.0745C88.9972 79.1141 89.386 80.1047 90.1764 80.0272C90.9669 79.9497 91.2592 79.1702 91.8929 79.215C92.5266 79.2597 92.7605 80.1357 94.0426 80.2263C95.3247 80.3169 95.6242 79.2267 96.2873 79.2736C96.9505 79.3204 97.3003 80.2342 98.2139 80.2988C99.1276 80.3633 99.6019 79.5823 99.7627 78.719C100.218 76.2765 98.7171 71.9622 98.2367 70.8021L98.2065 70.7364M96.2331 71.7406C96.6153 71.6062 97.8124 71.1438 98.2065 70.7364M87.5126 71.0072C86.8009 70.6013 85.0652 68.9557 85.8224 67.3022C86.3093 66.2391 87.0548 65.8371 87.7976 65.8037M98.2065 70.7364C98.8617 70.0589 99.3654 69.1103 99.1587 68.2445C98.9214 67.2504 98.2109 66.4894 96.8671 66.3706"
        stroke="#202023" strokeWidth="1.21189" strokeLinecap="round" strokeLinejoin="round" />
    <path d="M85.1071 76.5106C83.6553 75.542 82.2736 73.6153 86.0747 69.7637" stroke="#202023"
        strokeWidth="1.21189" strokeLinecap="round" strokeLinejoin="round" />
    <rect x="0.595279" y="-0.61643" width="92.3009" height="50.5578" rx="5.45349"
        transform="matrix(-0.0174463 -0.999848 0.999848 -0.0174586 30.5794 104.364)" fill="#BAF5ED"
        stroke="#202023" strokeWidth="1.21189" />
    <path
        d="M41.1713 104.226C37.7759 104.285 36.0782 104.315 34.7702 103.677C33.6197 103.115 32.6766 102.204 32.0761 101.073C31.3935 99.7877 31.3651 98.09 31.3084 94.6945L30.3132 35.1101C30.2674 32.3664 32.3309 30.0448 35.0611 29.7686L43.5831 28.9063C47.762 28.4835 51.983 28.9645 55.9596 30.3167C60.6634 31.9161 65.6967 32.2926 70.5861 31.4108L77.1051 30.2351C79.6673 29.7729 82.0333 31.7171 82.0768 34.3203L83.0704 93.8052C83.127 97.196 83.1553 98.8914 82.5172 100.198C81.9559 101.347 81.0454 102.289 79.9159 102.89C78.632 103.572 76.9366 103.602 73.5458 103.661L41.1713 104.226Z"
        fill="#78E5A9" />
    <mask id="mask0_2914_41385" style="mask-type:alpha" maskUnits="userSpaceOnUse" x="29" y="10"
        width="55" height="95">
        <rect width="93.5127" height="51.7698" rx="6.05943"
            transform="matrix(-0.0174445 -0.999848 0.999847 -0.0174604 31.4705 104.396)"
            fill="#BAF5ED" />
    </mask>
    <g mask="url(#mask0_2914_41385)">
        <path
            d="M36.7809 92.4118C41.2418 82.7288 39.4049 86.557 41.7666 81.3777C47.5167 68.7673 61.6096 63.8131 68.5316 52.3286C71.6804 47.1043 72.9925 44.7473 76.9285 37.4663"
            stroke="white" stroke-opacity="0.5" strokeWidth="7.87726" strokeLinecap="square" />
    </g>
    <mask id="path-35-inside-1_2914_41385" fill="white">
        <path fill-rule="evenodd" clip-rule="evenodd"
            d="M34.7669 103.677C36.0744 104.315 37.771 104.285 41.1641 104.226L73.5388 103.661C76.9319 103.602 78.6284 103.572 79.9129 102.889C81.0427 102.288 81.9534 101.345 82.5143 100.195C83.1521 98.8876 83.1225 97.1911 83.0632 93.798L81.7702 19.6867C81.711 16.2937 81.6814 14.5971 80.9985 13.3127C80.3977 12.1828 79.4547 11.2722 78.3046 10.7112C76.9971 10.0735 75.3006 10.1032 71.9076 10.1624L71.9075 10.1624L39.5328 10.7278C36.1397 10.787 34.4431 10.8167 33.1587 11.4996C32.0288 12.1004 31.1182 13.0434 30.5572 14.1935C29.9195 15.501 29.9491 17.1976 30.0083 20.5907L31.3013 94.7019C31.3605 98.095 31.3901 99.7915 32.0731 101.076C32.6738 102.206 33.6168 103.116 34.7669 103.677ZM38.6868 97.731C39.079 97.9223 39.588 97.9134 40.6059 97.8956L73.8754 97.3146C74.8933 97.2969 75.4022 97.288 75.7876 97.0831C76.1265 96.9029 76.3997 96.6199 76.568 96.2749C76.7593 95.8827 76.7505 95.3737 76.7327 94.3558L75.4266 19.4952C75.4085 18.4591 75.3995 17.9411 75.1943 17.5555C74.9959 17.1827 74.6739 16.8907 74.2836 16.7294C73.8799 16.5627 73.3635 16.604 72.3305 16.6867C71.906 16.7207 71.6938 16.7377 71.4973 16.7997C71.306 16.8601 71.126 16.9516 70.9647 17.0708C70.7989 17.1932 70.6597 17.3553 70.3815 17.6796L70.3815 17.6796C69.908 18.2314 69.6713 18.5073 69.3865 18.715C69.1198 18.9094 68.8176 19.0614 68.5024 19.1596C68.1659 19.2644 67.8081 19.2896 67.0924 19.34L67.0923 19.34C58.5868 19.9389 53.083 20.0325 44.6646 19.7322L44.6645 19.7322C43.9473 19.7066 43.5886 19.6938 43.2485 19.6007C42.9307 19.5136 42.6238 19.3724 42.3508 19.1877C42.0588 18.99 41.8125 18.7224 41.3198 18.1872C41.0303 17.8727 40.8856 17.7155 40.7156 17.599C40.5502 17.4856 40.3672 17.4003 40.1739 17.3467C39.9753 17.2916 39.7626 17.282 39.3372 17.2629L39.3372 17.2629C38.302 17.2163 37.7844 17.193 37.3868 17.3738C37.0024 17.5485 36.6908 17.8517 36.5055 18.2311C36.3139 18.6236 36.3229 19.1417 36.341 20.1778L37.6471 95.0383C37.6649 96.0562 37.6737 96.5652 37.8786 96.9505C38.0588 97.2895 38.3417 97.5627 38.6868 97.731Z" />
    </mask>
    <path fill-rule="evenodd" clip-rule="evenodd"
        d="M34.7669 103.677C36.0744 104.315 37.771 104.285 41.1641 104.226L73.5388 103.661C76.9319 103.602 78.6284 103.572 79.9129 102.889C81.0427 102.288 81.9534 101.345 82.5143 100.195C83.1521 98.8876 83.1225 97.1911 83.0632 93.798L81.7702 19.6867C81.711 16.2937 81.6814 14.5971 80.9985 13.3127C80.3977 12.1828 79.4547 11.2722 78.3046 10.7112C76.9971 10.0735 75.3006 10.1032 71.9076 10.1624L71.9075 10.1624L39.5328 10.7278C36.1397 10.787 34.4431 10.8167 33.1587 11.4996C32.0288 12.1004 31.1182 13.0434 30.5572 14.1935C29.9195 15.501 29.9491 17.1976 30.0083 20.5907L31.3013 94.7019C31.3605 98.095 31.3901 99.7915 32.0731 101.076C32.6738 102.206 33.6168 103.116 34.7669 103.677ZM38.6868 97.731C39.079 97.9223 39.588 97.9134 40.6059 97.8956L73.8754 97.3146C74.8933 97.2969 75.4022 97.288 75.7876 97.0831C76.1265 96.9029 76.3997 96.6199 76.568 96.2749C76.7593 95.8827 76.7505 95.3737 76.7327 94.3558L75.4266 19.4952C75.4085 18.4591 75.3995 17.9411 75.1943 17.5555C74.9959 17.1827 74.6739 16.8907 74.2836 16.7294C73.8799 16.5627 73.3635 16.604 72.3305 16.6867C71.906 16.7207 71.6938 16.7377 71.4973 16.7997C71.306 16.8601 71.126 16.9516 70.9647 17.0708C70.7989 17.1932 70.6597 17.3553 70.3815 17.6796L70.3815 17.6796C69.908 18.2314 69.6713 18.5073 69.3865 18.715C69.1198 18.9094 68.8176 19.0614 68.5024 19.1596C68.1659 19.2644 67.8081 19.2896 67.0924 19.34L67.0923 19.34C58.5868 19.9389 53.083 20.0325 44.6646 19.7322L44.6645 19.7322C43.9473 19.7066 43.5886 19.6938 43.2485 19.6007C42.9307 19.5136 42.6238 19.3724 42.3508 19.1877C42.0588 18.99 41.8125 18.7224 41.3198 18.1872C41.0303 17.8727 40.8856 17.7155 40.7156 17.599C40.5502 17.4856 40.3672 17.4003 40.1739 17.3467C39.9753 17.2916 39.7626 17.282 39.3372 17.2629L39.3372 17.2629C38.302 17.2163 37.7844 17.193 37.3868 17.3738C37.0024 17.5485 36.6908 17.8517 36.5055 18.2311C36.3139 18.6236 36.3229 19.1417 36.341 20.1778L37.6471 95.0383C37.6649 96.0562 37.6737 96.5652 37.8786 96.9505C38.0588 97.2895 38.3417 97.5627 38.6868 97.731Z"
        fill="white" />
    <path
        d="M41.1641 104.226L41.1852 105.438L41.1641 104.226ZM34.7669 103.677L35.2982 102.588L34.7669 103.677ZM73.5388 103.661L73.5176 102.449L73.5388 103.661ZM79.9129 102.889L80.4818 103.959L80.4818 103.959L79.9129 102.889ZM82.5143 100.195L81.4251 99.6639L81.4251 99.6639L82.5143 100.195ZM83.0632 93.798L81.8515 93.8191L81.8515 93.8191L83.0632 93.798ZM81.7702 19.6867L80.5585 19.7079L81.7702 19.6867ZM80.9985 13.3127L79.9284 13.8816L80.9985 13.3127ZM78.3046 10.7112L77.7734 11.8005L77.7734 11.8005L78.3046 10.7112ZM71.9075 10.1624L71.8863 8.95071L71.8863 8.95071L71.9075 10.1624ZM39.5328 10.7278L39.5116 9.51607L39.5116 9.51607L39.5328 10.7278ZM33.1587 11.4996L32.5897 10.4296L32.5897 10.4296L33.1587 11.4996ZM30.5572 14.1935L29.468 13.6623L29.468 13.6623L30.5572 14.1935ZM30.0083 20.5907L31.22 20.5695L30.0083 20.5907ZM31.3013 94.7019L30.0896 94.7231L31.3013 94.7019ZM32.0731 101.076L31.003 101.645L31.003 101.645L32.0731 101.076ZM40.6059 97.8956L40.5848 96.6839L40.6059 97.8956ZM38.6868 97.731L39.218 96.6417L39.218 96.6417L38.6868 97.731ZM73.8754 97.3146L73.8965 98.5263L73.8754 97.3146ZM75.7876 97.0831L76.3565 98.1531L76.3565 98.1531L75.7876 97.0831ZM76.568 96.2749L77.6573 96.8062L77.6573 96.8062L76.568 96.2749ZM76.7327 94.3558L77.9444 94.3346L77.9444 94.3346L76.7327 94.3558ZM75.4266 19.4952L74.2149 19.5164L75.4266 19.4952ZM75.1943 17.5555L76.2641 16.9861L75.1943 17.5555ZM74.2836 16.7294L73.8209 17.8495L73.8209 17.8495L74.2836 16.7294ZM72.3305 16.6867L72.4272 17.8947L72.4272 17.8947L72.3305 16.6867ZM71.4973 16.7997L71.1326 15.644L71.1326 15.644L71.4973 16.7997ZM70.9647 17.0708L70.245 16.0957L70.2449 16.0958L70.9647 17.0708ZM70.3815 17.6796L69.4618 16.8904L69.407 16.9543L69.3616 17.025L70.3815 17.6796ZM70.3815 17.6796L71.3012 18.4688L71.3559 18.405L71.4014 18.3342L70.3815 17.6796ZM69.3865 18.715L70.1005 19.6942L70.1005 19.6942L69.3865 18.715ZM68.5024 19.1596L68.8628 20.3166L68.8628 20.3166L68.5024 19.1596ZM67.0924 19.34L67.1136 20.5517L67.1456 20.5511L67.1775 20.5489L67.0924 19.34ZM67.0923 19.34L67.0712 18.1283L67.0392 18.1288L67.0072 18.1311L67.0923 19.34ZM44.6646 19.7322L44.7078 18.5211L44.6757 18.52L44.6435 18.5205L44.6646 19.7322ZM44.6645 19.7322L44.6213 20.9433L44.6535 20.9445L44.6857 20.9439L44.6645 19.7322ZM43.2485 19.6007L42.9283 20.7695L42.9283 20.7695L43.2485 19.6007ZM42.3508 19.1877L41.6715 20.1913L41.6715 20.1913L42.3508 19.1877ZM41.3198 18.1872L42.2114 17.3664L42.2114 17.3664L41.3198 18.1872ZM40.7156 17.599L40.0304 18.5985L40.0304 18.5985L40.7156 17.599ZM40.1739 17.3467L40.498 16.1789L40.498 16.1789L40.1739 17.3467ZM39.3372 17.2629L39.3917 16.0522L39.3539 16.0505L39.3161 16.0512L39.3372 17.2629ZM39.3372 17.2629L39.2827 18.4735L39.3205 18.4752L39.3583 18.4746L39.3372 17.2629ZM37.3868 17.3738L37.8883 18.477L37.8883 18.477L37.3868 17.3738ZM36.5055 18.2311L37.5945 18.7628L37.5945 18.7628L36.5055 18.2311ZM36.341 20.1778L37.5527 20.1566L36.341 20.1778ZM37.6471 95.0383L38.8588 95.0172L37.6471 95.0383ZM37.8786 96.9505L38.9487 96.3816L38.9487 96.3816L37.8786 96.9505ZM41.1429 103.015C39.4264 103.045 38.2118 103.065 37.261 103.004C36.3243 102.944 35.7509 102.809 35.2982 102.588L34.2357 104.767C35.0905 105.184 36.0191 105.353 37.1058 105.423C38.1784 105.491 39.5087 105.467 41.1852 105.438L41.1429 103.015ZM73.5176 102.449L41.1429 103.015L41.1852 105.438L73.5599 104.873L73.5176 102.449ZM79.3439 101.819C78.8992 102.055 78.3308 102.21 77.3968 102.303C76.4487 102.397 75.2342 102.419 73.5176 102.449L73.5599 104.873C75.2365 104.843 76.5668 104.821 77.6363 104.715C78.7199 104.607 79.642 104.406 80.4818 103.959L79.3439 101.819ZM81.4251 99.6639C80.9763 100.584 80.2478 101.338 79.3439 101.819L80.4818 103.959C81.8376 103.238 82.9304 102.107 83.6036 100.726L81.4251 99.6639ZM81.8515 93.8191C81.8815 95.5357 81.9017 96.7502 81.8407 97.7011C81.7806 98.6377 81.6459 99.2112 81.4251 99.6639L83.6036 100.726C84.0205 99.8716 84.1898 98.943 84.2595 97.8562C84.3284 96.7837 84.3042 95.4534 84.2749 93.7768L81.8515 93.8191ZM80.5585 19.7079L81.8515 93.8191L84.2749 93.7768L82.9819 19.6656L80.5585 19.7079ZM79.9284 13.8816C80.1649 14.3263 80.3196 14.8947 80.4123 15.8287C80.5064 16.7769 80.5286 17.9914 80.5585 19.7079L82.9819 19.6656C82.9527 17.989 82.9304 16.6587 82.8242 15.5892C82.7166 14.5056 82.515 13.5835 82.0685 12.7437L79.9284 13.8816ZM77.7734 11.8005C78.6934 12.2492 79.4478 12.9778 79.9284 13.8816L82.0685 12.7437C81.3476 11.3879 80.216 10.2951 78.8359 9.622L77.7734 11.8005ZM71.9287 11.3741C73.6452 11.3441 74.8598 11.3239 75.8106 11.3849C76.7472 11.445 77.3207 11.5797 77.7734 11.8005L78.8359 9.622C77.9811 9.20509 77.0525 9.03578 75.9658 8.96607C74.8932 8.89727 73.563 8.92143 71.8865 8.95071L71.9287 11.3741ZM71.9286 11.3741L71.9287 11.3741L71.8865 8.95071L71.8863 8.95071L71.9286 11.3741ZM39.5539 11.9395L71.9286 11.3741L71.8863 8.95071L39.5116 9.51607L39.5539 11.9395ZM33.7276 12.5697C34.1723 12.3332 34.7407 12.1785 35.6747 12.0858C36.6229 11.9916 37.8374 11.9695 39.5539 11.9395L39.5116 9.51607C37.8351 9.54535 36.5048 9.56764 35.4352 9.67386C34.3516 9.78148 33.4295 9.9831 32.5897 10.4296L33.7276 12.5697ZM31.6464 14.7248C32.0952 13.8047 32.8237 13.0503 33.7276 12.5697L32.5897 10.4296C31.2339 11.1505 30.1411 12.2821 29.468 13.6623L31.6464 14.7248ZM31.22 20.5695C31.19 18.853 31.1698 17.6384 31.2308 16.6876C31.2909 15.7509 31.4256 15.1775 31.6464 14.7248L29.468 13.6623C29.0511 14.5171 28.8817 15.4457 28.812 16.5324C28.7432 17.605 28.7673 18.9353 28.7966 20.6118L31.22 20.5695ZM32.513 94.6808L31.22 20.5695L28.7966 20.6118L30.0896 94.7231L32.513 94.6808ZM33.1431 100.507C32.9066 100.062 32.752 99.4939 32.6592 98.5599C32.5651 97.6118 32.543 96.3973 32.513 94.6808L30.0896 94.7231C30.1189 96.3996 30.1411 97.7299 30.2473 98.7994C30.3549 99.8831 30.5565 100.805 31.003 101.645L33.1431 100.507ZM35.2982 102.588C34.3781 102.139 33.6237 101.411 33.1431 100.507L31.003 101.645C31.7239 103.001 32.8555 104.094 34.2357 104.767L35.2982 102.588ZM40.5848 96.6839C40.0558 96.6932 39.732 96.6979 39.4893 96.6823C39.3763 96.6751 39.3078 96.6647 39.2662 96.6556C39.2463 96.6513 39.2341 96.6476 39.2275 96.6454C39.2212 96.6433 39.2185 96.642 39.218 96.6417L38.1555 98.8202C38.5527 99.0139 38.9556 99.0768 39.3341 99.1011C39.6985 99.1245 40.1381 99.1159 40.6271 99.1073L40.5848 96.6839ZM73.8542 96.1029L40.5848 96.6839L40.6271 99.1073L73.8965 98.5263L73.8542 96.1029ZM75.2186 96.0131C75.2182 96.0133 75.2155 96.0147 75.2093 96.0171C75.2028 96.0195 75.1907 96.0236 75.171 96.0286C75.1297 96.0391 75.0617 96.0519 74.9489 96.0631C74.707 96.0871 74.3832 96.0937 73.8542 96.1029L73.8965 98.5263C74.3855 98.5178 74.8251 98.5111 75.1884 98.475C75.5659 98.4375 75.9663 98.3606 76.3565 98.1531L75.2186 96.0131ZM75.4788 95.7437C75.4227 95.8587 75.3316 95.953 75.2186 96.0131L76.3565 98.1531C76.9214 97.8527 77.3768 97.3812 77.6573 96.8062L75.4788 95.7437ZM75.521 94.3769C75.5302 94.9059 75.5349 95.2297 75.5194 95.4724C75.5121 95.5854 75.5017 95.6539 75.4927 95.6955C75.4884 95.7154 75.4847 95.7276 75.4825 95.7342C75.4803 95.7405 75.479 95.7432 75.4788 95.7437L77.6573 96.8062C77.851 96.409 77.9139 96.0061 77.9382 95.6275C77.9615 95.2632 77.9529 94.8236 77.9444 94.3346L75.521 94.3769ZM74.2149 19.5164L75.521 94.3769L77.9444 94.3346L76.6383 19.4741L74.2149 19.5164ZM74.1245 18.1249C74.1245 18.1249 74.1247 18.1253 74.1252 18.1264C74.1257 18.1275 74.1266 18.1296 74.1278 18.1328C74.1302 18.1392 74.1344 18.1515 74.1395 18.1717C74.1502 18.2143 74.1632 18.2843 74.1745 18.3999C74.1988 18.6472 74.2055 18.9785 74.2149 19.5164L76.6383 19.4741C76.6296 18.9758 76.6228 18.5301 76.5867 18.163C76.5494 17.7833 76.473 17.3786 76.2641 16.9861L74.1245 18.1249ZM73.8209 17.8495C73.951 17.9033 74.0583 18.0006 74.1245 18.1249L76.2641 16.9861C75.9334 16.3648 75.3968 15.8781 74.7464 15.6094L73.8209 17.8495ZM72.4272 17.8947C72.9634 17.8518 73.2939 17.8263 73.5423 17.8264C73.6585 17.8265 73.7294 17.8326 73.7728 17.8391C73.7934 17.8422 73.806 17.8452 73.8127 17.847C73.816 17.8479 73.8181 17.8485 73.8193 17.8489C73.8204 17.8493 73.8209 17.8495 73.8209 17.8495L74.7464 15.6094C74.3354 15.4396 73.9252 15.4029 73.5437 15.4026C73.1748 15.4024 72.7305 15.4389 72.2338 15.4787L72.4272 17.8947ZM71.8619 17.9554C71.897 17.9444 71.9477 17.9331 72.4272 17.8947L72.2338 15.4787C71.8643 15.5083 71.4906 15.531 71.1326 15.644L71.8619 17.9554ZM71.6844 18.0458C71.7382 18.0061 71.7982 17.9755 71.8619 17.9554L71.1326 15.644C70.8138 15.7446 70.5139 15.8972 70.245 16.0957L71.6844 18.0458ZM71.3012 18.4687C71.6156 18.1023 71.6549 18.0675 71.6844 18.0458L70.2449 16.0958C69.9428 16.3188 69.7039 16.6083 69.4618 16.8904L71.3012 18.4687ZM71.4014 18.3342L71.4014 18.3341L69.3616 17.025L69.3615 17.0251L71.4014 18.3342ZM70.1005 19.6942C70.5257 19.3842 70.8645 18.9777 71.3012 18.4688L69.4617 16.8905C68.9515 17.4851 68.8169 17.6304 68.6725 17.7357L70.1005 19.6942ZM68.8628 20.3166C69.3048 20.179 69.7264 19.9669 70.1005 19.6942L68.6725 17.7357C68.5131 17.8519 68.3304 17.9438 68.1421 18.0025L68.8628 20.3166ZM67.1775 20.5489C67.8381 20.5023 68.3607 20.473 68.8628 20.3166L68.1421 18.0025C67.9711 18.0557 67.778 18.0768 67.0073 18.1311L67.1775 20.5489ZM67.1135 20.5517L67.1136 20.5517L67.0713 18.1283L67.0712 18.1283L67.1135 20.5517ZM44.6214 20.9433C53.0826 21.2451 58.6293 21.1508 67.1774 20.5489L67.0072 18.1311C58.5443 18.727 53.0833 18.8198 44.7078 18.5211L44.6214 20.9433ZM44.6857 20.9439L44.6858 20.9439L44.6435 18.5205L44.6434 18.5205L44.6857 20.9439ZM42.9283 20.7695C43.4357 20.9085 43.9592 20.9197 44.6213 20.9433L44.7077 18.5211C43.9353 18.4935 43.7415 18.4792 43.5687 18.4319L42.9283 20.7695ZM41.6715 20.1913C42.0543 20.4504 42.4825 20.6474 42.9283 20.7695L43.5688 18.4319C43.3788 18.3798 43.1932 18.2944 43.0301 18.184L41.6715 20.1913ZM40.4281 19.0079C40.8825 19.5016 41.2356 19.8962 41.6715 20.1913L43.0301 18.184C42.882 18.0838 42.7424 17.9432 42.2114 17.3664L40.4281 19.0079ZM40.0304 18.5985C40.0606 18.6193 40.1011 18.6527 40.4281 19.008L42.2114 17.3664C41.9595 17.0928 41.7106 16.8118 41.4009 16.5995L40.0304 18.5985ZM39.8498 18.5144C39.9142 18.5323 39.9752 18.5607 40.0304 18.5985L41.4009 16.5995C41.1252 16.4104 40.8201 16.2684 40.498 16.1789L39.8498 18.5144ZM39.2827 18.4735C39.7632 18.4952 39.8144 18.5046 39.8498 18.5144L40.498 16.1789C40.1363 16.0786 39.762 16.0689 39.3917 16.0522L39.2827 18.4735ZM39.3583 18.4746L39.3584 18.4746L39.3161 16.0512L39.316 16.0512L39.3583 18.4746ZM37.8883 18.477C37.8883 18.477 37.8888 18.4768 37.8899 18.4764C37.891 18.4759 37.8931 18.4752 37.8965 18.4742C37.903 18.4722 37.9155 18.4688 37.936 18.465C37.9792 18.4569 38.0498 18.4483 38.1659 18.4442C38.4142 18.4354 38.7453 18.4494 39.2827 18.4735L39.3917 16.0522C38.8939 16.0298 38.4486 16.0089 38.0799 16.0219C37.6987 16.0355 37.29 16.0865 36.8852 16.2706L37.8883 18.477ZM37.5945 18.7628C37.6563 18.6363 37.7602 18.5353 37.8883 18.477L36.8853 16.2705C36.2446 16.5618 35.7253 17.067 35.4165 17.6994L37.5945 18.7628ZM37.5527 20.1566C37.5433 19.6188 37.5385 19.2874 37.5541 19.0394C37.5614 18.9235 37.5719 18.8531 37.5812 18.8102C37.5856 18.7898 37.5893 18.7774 37.5915 18.7709C37.5926 18.7676 37.5934 18.7655 37.5939 18.7644C37.5943 18.7633 37.5945 18.7628 37.5945 18.7628L35.4165 17.6994C35.2214 18.099 35.1592 18.5061 35.1351 18.8868C35.1119 19.255 35.1206 19.7007 35.1293 20.1989L37.5527 20.1566ZM38.8588 95.0172L37.5527 20.1566L35.1293 20.1989L36.4354 95.0595L38.8588 95.0172ZM38.9487 96.3816C38.9484 96.3811 38.947 96.3785 38.9447 96.3722C38.9422 96.3657 38.9381 96.3536 38.9331 96.334C38.9226 96.2927 38.9098 96.2246 38.8986 96.1119C38.8746 95.8699 38.868 95.5461 38.8588 95.0172L36.4354 95.0595C36.4439 95.5484 36.4507 95.9881 36.4867 96.3514C36.5242 96.7289 36.6011 97.1293 36.8086 97.5195L38.9487 96.3816ZM39.218 96.6417C39.103 96.5856 39.0087 96.4946 38.9487 96.3816L36.8086 97.5195C37.109 98.0844 37.5805 98.5397 38.1555 98.8202L39.218 96.6417Z"
        fill="#202023" mask="url(#path-35-inside-1_2914_41385)" />
    <path d="M74.0232 12.634C76.6645 12.634 78.2492 13.1623 78.7775 14.7472" stroke="#202023"
        strokeWidth="1.21189" strokeLinecap="round" />
    <path d="M79.042 16.5967C79.0842 16.8986 79.0948 17.603 79.0948 17.9175" stroke="#202023"
        strokeWidth="1.21189" strokeLinecap="round" />
    <path
        d="M61.5362 43.7346C63.4755 43.7345 65.0476 42.1622 65.0476 40.2228C65.0476 38.2835 63.4756 36.7112 61.5363 36.7112C59.5969 36.7112 58.0249 38.2835 58.0249 40.2229C58.0249 42.1623 59.5969 43.7346 61.5362 43.7346Z"
        fill="white" stroke="#202023" strokeWidth="1.21189" />
    <mask id="mask1_2914_41385" style="mask-type:alpha" maskUnits="userSpaceOnUse" x="58" y="37"
        width="7" height="7">
        <ellipse cx="2.9054" cy="2.90575" rx="2.9054" ry="2.90575"
            transform="matrix(1 -7.89784e-06 -7.89039e-06 1 58.6309 37.3171)" fill="white" />
    </mask>
    <g mask="url(#mask1_2914_41385)">
        <ellipse cx="3.03746" cy="3.03783" rx="3.03746" ry="3.03783"
            transform="matrix(1 -7.89879e-06 -7.88943e-06 1 60.084 35.5996)" fill="#202023" />
    </g>
    <path
        d="M48.3045 43.735C50.2438 43.735 51.8159 42.1627 51.8159 40.2233C51.8159 38.2839 50.2439 36.7116 48.3046 36.7117C46.3652 36.7117 44.7932 38.284 44.7932 40.2234C44.7932 42.1628 46.3652 43.7351 48.3045 43.735Z"
        fill="white" stroke="#202023" strokeWidth="1.21189" />
    <mask id="mask2_2914_41385" style="mask-type:alpha" maskUnits="userSpaceOnUse" x="45" y="37"
        width="7" height="7">
        <ellipse cx="2.9054" cy="2.90575" rx="2.9054" ry="2.90575"
            transform="matrix(1 -7.89784e-06 -7.89039e-06 1 45.3987 37.3176)" fill="white" />
    </mask>
    <g mask="url(#mask2_2914_41385)">
        <ellipse cx="3.03746" cy="3.03783" rx="3.03746" ry="3.03783"
            transform="matrix(1 -7.89879e-06 -7.88943e-06 1 46.8518 35.6006)" fill="#202023" />
    </g>
    <path
        d="M57.1622 47.6717C56.0874 46.6337 51.5978 46.7121 51.3936 50.1503C51.1739 53.8514 55.1508 53.5193 56.7215 52.6992"
        stroke="#202023" strokeWidth="1.21189" strokeLinecap="round" />
    <path d="M45.4487 57.6525C47.1116 62.1148 60.1026 64.794 65.2508 57.0425" stroke="#202023"
        strokeWidth="1.21189" strokeLinecap="round" />
    <path
        d="M64.1207 52.8353C63.3515 54.1698 63.9165 56.2735 65.7836 57.2977C66.5837 57.7366 67.9147 58.3172 69.4993 58.2896"
        stroke="#202023" strokeWidth="1.21189" strokeLinecap="round" />
</svg>
